{"title":"Amos_Lee_ Also_White_Lies_Tonight_Show_Live_Performances_TTL","uid":6132799,"size":218939134,"categoryP":"video","categoryS":"hd___tv_shows","magnet":"?xt=urn:btih:f812399f11f232eacfcd0bd08517b7a352738585&amp;dn=Amos_Lee_+Also_White_Lies_Tonight_Show_Live_Performances_TTL&amp;tr=udp%3A%2F%2Ftracker.openbittorrent.com%3A80&amp;tr=udp%3A%2F%2Fopen.demonii.com%3A1337&amp;tr=udp%3A%2F%2Ftracker.coppersurfer.tk%3A6969&amp;tr=udp%3A%2F%2Fexodus.desync.com%3A6969","seeders":0,"leechers":1,"uploader":"thetorrentlord","files":6,"time":1296196386,"description":"Tonight_Amos_Lee_SONG_ONLY_2011-01-26TTL.avi\nFormat                           : AVI\nFormat/Info                      : Audio Video Interleave\nFile size                        : 101 MiB\nDuration                         : 3mn 34s\nOverall bit rate                 : 3 940 Kbps\nMovie name                       : Tonight_Amos_Lee_SONG_ONLY_2011-01-26.mpg\nDirector                         : created.with.SUPER(C).v2009.bld.35\nWriting application              : SUPER(C)   \n\nVideo\nID                               : 0\nFormat                           : MPEG-4 Visual\nFormat profile                   : Simple@L3\nFormat settings, BVOP            : No\nFormat settings, QPel            : No\nFormat settings, GMC             : No warppoints\nFormat settings, Matrix          : Default (H.263)\nCodec ID                         : XVID\nCodec ID/Hint                    : XviD\nDuration                         : 3mn 34s\nBit rate                         : 3 815 Kbps\nWidth                            : 1 280 pixels\nHeight                           : 720 pixels\nDisplay aspect ratio             : 16:9\nFrame rate                       : 29.970 fps\nColor space                      : YUV\nChroma subsampling               : 4:2:0\nBit depth                        : 8 bits\nScan type                        : Progressive\nBits/(Pixel*Frame)               : 0.138\nStream size                      : 97.4 MiB (97%)\nWriting library                  : XviD 1.1.2 (UTC 2006-11-01)\n\nAudio\nID                               : 1\nFormat                           : MPEG Audio\nFormat version                   : Version 1\nFormat profile                   : Layer 3\nMode                             : Joint stereo\nMode extension                   : MS Stereo\nCodec ID                         : 55\nCodec ID/Hint                    : MP3\nDuration                         : 3mn 34s\nBit rate mode                    : Constant\nBit rate                         : 112 Kbps\nChannel(s)                       : 2 channels\nSampling rate                    : 48.0 KHz\nStream size                      : 2.86 MiB (3%)\nAlignment                        : Aligned on interleaves\nInterleave, duration             : 24 ms (0.72 video frame)\nInterleave, preload duration     : 24 ms\n\n","torrent":{"xt":"urn:btih:f812399f11f232eacfcd0bd08517b7a352738585","amp;dn":"Amos_Lee_+Also_White_Lies_Tonight_Show_Live_Performances_TTL","amp;tr":["udp%3A%2F%2Ftracker.openbittorrent.com%3A80","udp%3A%2F%2Fopen.demonii.com%3A1337","udp%3A%2F%2Ftracker.coppersurfer.tk%3A6969","udp%3A%2F%2Fexodus.desync.com%3A6969"],"infoHash":"f812399f11f232eacfcd0bd08517b7a352738585","infoHashBuffer":{"type":"Buffer","data":[248,18,57,159,17,242,50,234,207,205,11,208,133,23,183,163,82,115,133,133]},"announce":[],"urlList":[]}}